<svg width="80" height="26" viewBox="0 0 80 26" fill="none" xmlns="http://www.w3.org/2000/svg">
<path d="M17.8543 23.1355H7.14598C4.7814 23.1355 2.86475 21.2188 2.86475 18.8542V8.14587C2.86475 5.78129 4.7814 3.86462 7.14598 3.86462H17.8543C20.2189 3.86462 22.1356 5.78129 22.1356 8.14587V18.8542C22.1356 21.2188 20.2189 23.1355 17.8543 23.1355Z" stroke="white" stroke-width="1.5" stroke-linecap="round" stroke-linejoin="round"/>
<path d="M12.5 17.2189C14.5538 17.2189 16.2188 15.5539 16.2188 13.5001C16.2188 11.4463 14.5538 9.78137 12.5 9.78137C10.4462 9.78137 8.78125 11.4463 8.78125 13.5001C8.78125 15.5539 10.4462 17.2189 12.5 17.2189Z" stroke="white" stroke-width="1.5" stroke-linecap="round" stroke-linejoin="round"/>
<path d="M17.8649 9.25008C18.4575 9.25008 18.9378 8.76972 18.9378 8.17716C18.9378 7.58461 18.4575 7.10425 17.8649 7.10425C17.2724 7.10425 16.792 7.58461 16.792 8.17716C16.792 8.76972 17.2724 9.25008 17.8649 9.25008Z" fill="white"/>
<path d="M67.4373 22.0104C65.8748 22.0104 64.3019 21.5937 62.9165 20.802L57.854 22.125L59.1769 17.1875C58.3332 15.7395 57.9165 14.1145 57.9165 12.427C57.9165 7.18745 62.1873 2.85413 67.4269 2.85413C70.0207 2.85413 72.4269 3.87496 74.229 5.68746C76.0311 7.48954 77.1144 9.90621 77.1144 12.4375C77.1352 17.7395 72.7394 22.0104 67.4373 22.0104Z" stroke="white" stroke-width="1.5" stroke-linecap="round" stroke-linejoin="round"/>
<path d="M71.5519 14.5104C71.0311 13.7812 70.7707 13.4062 70.354 13.3125C69.8644 13.2083 69.4269 13.4583 69.2394 13.5833C68.9478 13.5312 68.1665 13.3333 67.479 12.6562C66.7915 11.9792 66.5936 11.2083 66.5311 10.9167C66.6249 10.7187 66.854 10.2083 66.6769 9.64583C66.5415 9.17708 66.1769 8.9375 65.479 8.44792C65.3123 8.33333 65.1249 8.21875 64.8853 8.21875C64.6144 8.21875 64.4165 8.36458 64.3228 8.44792L63.5103 9.26042C62.6978 10.1146 63.5936 12.375 65.604 14.3854C67.6144 16.3958 69.8749 17.3333 70.729 16.4792L71.5415 15.6667C71.6249 15.5729 71.7707 15.3542 71.7707 15.0729C71.7707 14.8333 71.6665 14.6562 71.5519 14.5104Z" stroke="white" stroke-width="1.5" stroke-linecap="round" stroke-linejoin="round"/>
</svg>
